<svg xmlns="http://www.w3.org/2000/svg" width="134" height="22"><g fill="#010101"><path d="M10.038 13.482h-1.324v4.474c0 2.482 1.262 3.095 2.556 3.217v.276h-11.27v-.276c1.293-.123 2.556-.735 2.556-3.217v-14.585c0-2.482-1.263-2.972-2.556-3.095v-.276h10.253c5.789 0 8.375 2.85 8.375 6.649 0 3.83-3.048 6.833-8.59 6.833zm-1.324-.674h.215c2.771.184 3.849-2.39 3.849-5.791 0-4.351-1.016-6.435-3.51-6.435h-.554v12.226zM31.406 11.429v7.354c0 .797.339 1.072.8 1.072.37 0 .862-.123 1.694-1.501l.246.153c-.862 1.992-2.309 3.432-4.495 3.432-1.447 0-2.648-.674-3.171-1.839-1.078 1.073-2.217 1.9-4.095 1.9-2.31 0-4.311-1.011-4.311-3.309 0-.858.308-1.686.77-2.298.923-1.226 2.802-2.237 6.958-3.401l.37-.092v-2.727c0-2.206-.462-2.88-1.324-2.88-1.57 0-.893 1.777-1.417 3.125-.523 1.287-1.478 1.747-2.278 1.747-1.201 0-2.155-.858-2.155-2.084 0-1.256 1.201-3.217 6.035-3.217 4.279 0 6.373 1.623 6.373 4.565zm-5.08 8.242c-.123-.337-.154-.674-.154-1.072v-5.209l-.308.092c-2.278.674-2.956 2.513-2.956 3.799 0 2.053 1.016 2.789 2.186 2.789.431 0 .863-.184 1.232-.399zM40.767 6.894l.247.092v3.003c1.2-2.329 3.016-3.279 4.156-3.279 1.262 0 2.34.766 2.34 2.42 0 1.134-.677 2.053-2.186 2.053-1.386 0-2.032-1.471-2.895-1.471-.493 0-.8.092-1.354 1.226v7.476c0 2.022.523 2.696 1.354 2.789v.245h-8.283v-.276c.862-.092 1.725-.582 1.725-2.604v-7.047c0-2.053-.77-2.482-1.725-2.451v-.276l6.621-1.9zM54.068 7.415c-1.539 0-2.032 2.42-2.032 4.78 0 4.259 1.602 6.741 4.526 6.741 1.447 0 2.956-.613 3.695-2.359l.247.061c-1.017 3.983-3.572 5.362-6.19 5.362-3.664 0-7.113-2.696-7.113-7.384 0-4.106 2.648-7.752 7.513-7.752 3.202 0 5.48 1.562 5.48 3.033 0 .889-.862 2.114-2.155 2.114-.893 0-1.724-.613-2.063-1.655-.307-.888-.492-2.941-1.908-2.941zM72.265.245c5.512 0 8.868 4.259 8.868 10.786s-3.326 10.786-8.868 10.786c-5.511 0-8.868-4.259-8.868-10.786s3.388-10.786 8.868-10.786zm0 20.499c4.588 0 7.667-3.861 7.667-9.713 0-5.853-2.987-9.713-7.667-9.713-4.649 0-7.636 3.861-7.636 9.713 0 5.852 3.048 9.713 7.636 9.713zM90.986 7.905h-4.003v13.543h-1.139v-13.543h-3.356v-1.041h3.356v-3.31c0-1.226.247-1.899.678-2.39.585-.674 1.509-.919 2.556-.919.831 0 1.478.153 1.909.276v1.103c-.524-.184-1.232-.368-1.971-.368-.616 0-1.201.153-1.57.551-.277.307-.462.705-.462 1.655v3.401h4.003v1.042zM100.162 7.905h-4.003v13.543h-1.139v-13.543h-3.356v-1.041h3.356v-3.31c0-1.226.247-1.899.678-2.39.585-.674 1.509-.919 2.556-.919.831 0 1.478.153 1.909.276v1.103c-.525-.184-1.233-.368-1.973-.368-.616 0-1.201.153-1.57.551-.277.307-.462.705-.462 1.655v3.401h4.003v1.042zm4.433-4.075h-1.139v-3.217h1.139v3.217zm0 17.619h-1.139v-14.585h1.139v14.585zM119.282 18.415c-1.047 1.992-2.802 3.401-5.542 3.401-4.033 0-6.466-3.034-6.466-7.599 0-4.626 2.433-7.721 6.466-7.721 2.864 0 4.742 1.378 5.696 3.677l-.893.919c-.77-2.298-2.463-3.615-4.804-3.615-3.202 0-5.234 2.543-5.234 6.71 0 4.137 2.094 6.649 5.234 6.649 2.155 0 3.787-1.134 4.68-3.187l.863.766zM133.908 13.819v.276h-11.423v.276c0 3.554 1.786 6.404 5.48 6.404 3.171 0 4.465-1.93 5.235-3.371l.8.797c-.77 1.501-2.617 3.616-6.065 3.616-4.034 0-6.682-2.85-6.682-7.599 0-4.596 2.525-7.721 6.466-7.721 3.91-.001 6.189 3.063 6.189 7.322zm-11.393-.705h10.13c-.031-2.788-1.786-5.638-4.927-5.638-2.925.001-4.834 2.115-5.203 5.638z"/></g></svg>