<svg xmlns="http://www.w3.org/2000/svg" width="35" height="22"><g fill="#A09F9F"><g fill-rule="evenodd" clip-rule="evenodd"><path d="M.126 9.487h2.128v-6.401h-2.128v6.401zm1.063-7.275c.742 0 1.203-.492 1.203-1.106-.013-.628-.46-1.106-1.188-1.106s-1.204.478-1.204 1.105c0 .615.462 1.107 1.176 1.107h.013zM3.43 9.487h2.129v-3.575c0-.191.014-.382.07-.519.153-.383.504-.779 1.092-.779.77 0 1.077.588 1.077 1.448v3.425h2.127v-3.67c0-1.967-1.049-2.882-2.449-2.882-1.147 0-1.651.642-1.931 1.079h.014v-.928h-2.129c.029.601 0 6.401 0 6.401"/></g><path d="M22.187 7.251h-1.799c-1.281 0-1.486-.545-1.486-1.049 0-.24.016-.635.031-1.117h3.008c.449 0 1.309-.178 1.309-.969 0-.79-.396-1.308-.928-1.308h-3.352c-.002-1.14-.082-2.276-1.24-2.276-.479 0-.868.189-1.032.659-.216.617-.159 1.341-.155 1.982l.001.368.011 1.267.004 1.366c0 2.549 2.412 3.271 2.875 3.271s2.275.042 2.604.042 1.268-.084 1.268-.996c-.002-.914-.67-1.24-1.119-1.24"/><path d="M34.974 3.377h-1.43v-.939c0-.352.232-.434.396-.434h1.01v-1.547l-1.39-.007c-1.541 0-1.893 1.156-1.893 1.895v1.032h-.893v1.595h.893v4.516h1.877v-4.516h1.266l.164-1.595"/></g><g fill-rule="evenodd" clip-rule="evenodd"><path d="M.126 21.487h2.128v-6.401h-2.128v6.401zm1.063-7.275c.742 0 1.203-.492 1.203-1.106-.013-.628-.46-1.106-1.188-1.106s-1.204.478-1.204 1.105c0 .614.462 1.106 1.176 1.106h.013zM3.43 21.487h2.129v-3.575c0-.191.014-.382.07-.519.153-.383.504-.779 1.092-.779.77 0 1.077.588 1.077 1.448v3.425h2.127v-3.67c0-1.967-1.049-2.882-2.449-2.882-1.147 0-1.651.642-1.931 1.079h.014v-.929h-2.129c.029.602 0 6.402 0 6.402"/></g><path d="M22.188 19.251h-1.799c-1.281 0-1.486-.545-1.486-1.049 0-.24.016-.635.031-1.117h3.008c.449 0 1.309-.178 1.309-.969 0-.79-.396-1.308-.928-1.308h-3.352c-.002-1.14-.082-2.276-1.24-2.276-.479 0-.868.189-1.032.659-.216.617-.159 1.341-.155 1.982l.001.368.011 1.267.004 1.366c0 2.549 2.412 3.271 2.875 3.271s2.275.042 2.604.042 1.268-.084 1.268-.996c-.002-.914-.67-1.24-1.119-1.24"/><path d="M34.975 15.377h-1.43v-.938c0-.352.232-.434.396-.434h1.01v-1.548l-1.391-.007c-1.541 0-1.893 1.156-1.893 1.895v1.032h-.893v1.595h.893v4.516h1.877v-4.516h1.266l.165-1.595"/></svg>